<svg xmlns="http://www.w3.org/2000/svg" xmlns:xlink="http://www.w3.org/1999/xlink" width="375" height="503" viewBox="0 0 375 503">
  <defs>
    <clipPath id="clip-path">
      <rect id="Rectangle_856" data-name="Rectangle 856" width="375" height="503" transform="translate(0 175)" fill="#fff" stroke="#707070" stroke-width="1"/>
    </clipPath>
  </defs>
  <g id="Mask_Group_28" data-name="Mask Group 28" transform="translate(0 -175)" clip-path="url(#clip-path)">
    <g id="Group_5402" data-name="Group 5402">
      <path id="Path_1285" data-name="Path 1285" d="M74.209,173.968C1.343,209.726,5.391,319.025,11.464,367.6l66.119-34.409c-2.024-43.854,4.723-87.034,26.313-97.829L405.478,84.235l1.349-.675,1.349-.675c1.349-.675,2.024-1.349,3.373-2.024L428.417-.1Z" transform="translate(-2.417 152.988)" fill="#ef434e"/>
      <path id="Path_1286" data-name="Path 1286" d="M348.811,61.409c2.024,43.854-4.723,87.034-26.313,97.829L22.939,309.692l-2.024.675-1.349.675c-1.349.675-2.024,1.349-3.373,2.024L0,393.352,352.859,220.634C425.724,184.876,421,76.252,414.929,27Z" transform="translate(-51 308.727)" fill="#ef434e"/>
      <g id="Component_1_1" data-name="Component 1 – 1" transform="translate(60 355)">
        <path id="Path_4958" data-name="Path 4958" d="M24.269,32.721c-10.812,5.287-10.137,21.448-9.234,28.7l9.787-5.1c-.3-6.49.734-12.9,3.931-14.454l44.737-22.4.215-.108.2-.129c.171-.107.341-.2.505-.28L76.926,6.974Z" transform="translate(-6.095 -6.974)" fill="#fff"/>
        <path id="Path_4959" data-name="Path 4959" d="M57.805,39.086c.294,6.491-.734,12.9-3.933,14.454L9.456,75.839l-.216.107-.2.128a5.716,5.716,0,0,1-.505.28L6.095,88.245,58.357,62.69C69.168,57.4,68.494,41.241,67.59,33.99Z" transform="translate(-6.095 -6.974)" fill="#fff"/>
        <path id="Path_4960" data-name="Path 4960" d="M97.862,58.695c-.613,2.972,2.548,4.293,5.709,4.293,3.256,0,7.312-.849,7.312-4.906,0-3.067-3.632-3.349-6.417-3.585-5.235-.379-10.236-2.312-10.236-7.691,0-8.538,7.406-12.076,14.954-12.076,6.228,0,11.983,2.594,10.473,10h-6.415c.235-2.689-2.406-3.821-5.332-3.821-3.113,0-6.557,1.745-6.557,4.718,0,2.357,2.548,2.925,5.567,3.3,6.746.613,12.36,2.168,10.85,9.906-1.509,8.114-8.491,10.332-15.474,10.332-6.7,0-12.689-3.256-11.18-10.473Z" transform="translate(-6.095 -6.974)" fill="#fff"/>
        <path id="Path_4961" data-name="Path 4961" d="M121.312,68.413l7.029-33.024c4.718-.046,9.389,0,14.1,0,7.689,0,10.05,5.992,9.153,12.124-.992,6.653-6.464,11.559-14.2,11.559h-7.03l-1.982,9.341Zm17.361-15.379c3.208,0,5.707-2.642,6.321-5.8.377-2.641-.331-5.9-3.822-5.9-2.406-.047-4.765,0-7.17,0l-2.5,11.7Z" transform="translate(-6.095 -6.974)" fill="#fff"/>
        <path id="Path_4962" data-name="Path 4962" d="M167.074,69.026c-7.593,0-13.632-4.717-13.632-13.54,0-13.161,10.33-20.568,21.041-20.568,7.5,0,13.633,4.718,13.633,13.54,0,12.832-9.2,20.568-21.042,20.568m1.464-6.463c6.085,0,12.406-4.435,12.406-12.973,0-5.379-3.4-8.162-7.83-8.162a12.454,12.454,0,0,0-12.267,10.945c-.99,5.567,1.228,10.19,7.691,10.19" transform="translate(-6.095 -6.974)" fill="#fff"/>
        <path id="Path_4963" data-name="Path 4963" d="M217.651,67.469l-.188.991H210.15l-4.48-10.944h-6.134L197.225,68.46h-7.077l7.029-33.07h14.106c7.547,0,10.378,5.709,9.246,11.322a12.528,12.528,0,0,1-7.973,9.717Zm-9.906-15.756a6.557,6.557,0,0,0,6.227-5.473c.377-2.406-.849-4.67-4.058-4.67h-7.076c-.707,3.4-1.415,6.746-2.17,10.143Z" transform="translate(-6.095 -6.974)" fill="#fff"/>
        <path id="Path_4964" data-name="Path 4964" d="M224.685,41.57c.424-2.075.8-4.058,1.319-6.133h24.439c-.52,2.075-.9,4.058-1.322,6.133h-8.773l-5.709,26.89H227.8l5.709-26.89Z" transform="translate(-6.095 -6.974)" fill="#fff"/>
        <path id="Path_4965" data-name="Path 4965" d="M91.084,83.423c.425-2.074.8-4.056,1.32-6.132h24.437c-.519,2.076-.9,4.058-1.32,6.132h-8.774l-5.709,26.89H94.2l5.709-26.89Z" transform="translate(-6.095 -6.974)" fill="#fff"/>
        <path id="Path_4966" data-name="Path 4966" d="M119.251,104.842l-3.727,5.472h-7.69l.189-.943L130.1,77.007h3.254l8.21,32.364-.19.943h-7.17l-1.18-5.472Zm3.538-5.944h8.963l-2.17-11.039Z" transform="translate(-6.095 -6.974)" fill="#fff"/>
        <path id="Path_4967" data-name="Path 4967" d="M153.172,103.993h13.775c-.517,2.264-.8,4.056-1.319,6.321H144.776L151.8,77.292h7.077Z" transform="translate(-6.095 -6.974)" fill="#fff"/>
        <path id="Path_4968" data-name="Path 4968" d="M195.869,83.471H182.754l-1.415,6.7H193.6c-.517,2.074-.9,4.15-1.32,6.178H180.017l-1.6,7.549H191.9l-1.367,6.415H169.922c2.311-10.991,4.623-22.032,7.03-33.021h20.236Z" transform="translate(-6.095 -6.974)" fill="#fff"/>
        <path id="Path_4969" data-name="Path 4969" d="M207.949,91.114l-4.058,19.2h-7.028l7.028-33.165h1.935L220.544,96.4l4.1-19.106h7.077L224.7,110.409H222.9Z" transform="translate(-6.095 -6.974)" fill="#fff"/>
        <path id="Path_4970" data-name="Path 4970" d="M235.031,83.423c.425-2.074.8-4.056,1.32-6.132h24.438c-.52,2.076-.9,4.058-1.321,6.132H250.7l-5.71,26.89h-6.841l5.709-26.89Z" transform="translate(-6.095 -6.974)" fill="#fff"/>
      </g>
    </g>
  </g>
</svg>
